# xmcd
#
# Track frame offsets:
#	157
#	14483
#	30397
#	43862
#	58264
#	80820
#	99130
#	119919
#	123755
#	145506
#	166191
#	184584
#	230846
#
# Disc length: 3592 seconds
#
# Revision: 0
# Processed by: cddbd v1.5.1PL0 Copyright (c) Steve Scherf et al.
# Submitted via: audiograbber 1.83.01
#
DISCID=ac0e060d
DTITLE=Eric Burdon - The Eric Burdon story CD2
DYEAR=2004
DGENRE=R&B
TTITLE0=Dey won't
TTITLE1=Do you feel it
TTITLE2=Got the funky fever
TTITLE3=I'm a wicked man
TTITLE4=Stop what you are doing
TTITLE5=Street walker
TTITLE6=Sweet blood call
TTITLE7=The royal canal
TTITLE8=The road
TTITLE9=Power company
TTITLE10=Heart attack
TTITLE11=It hurts me too
TTITLE12=No more elmore
EXTD=
EXTT0=
EXTT1=
EXTT2=
EXTT3=
EXTT4=
EXTT5=
EXTT6=
EXTT7=
EXTT8=
EXTT9=
EXTT10=
EXTT11=
EXTT12=
PLAYORDER=
